<svg width="26" height="26" viewBox="0 0 26 26" fill="none" xmlns="http://www.w3.org/2000/svg">
<path fill-rule="evenodd" clip-rule="evenodd" d="M13 2C10.0826 2 7.28473 3.15893 5.22183 5.22183C3.15893 7.28473 2 10.0826 2 13C2 14.4445 2.28452 15.8749 2.83732 17.2095C3.39013 18.5441 4.20038 19.7567 5.22183 20.7782C6.24327 21.7996 7.4559 22.6099 8.79048 23.1627C10.1251 23.7155 11.5555 24 13 24C14.4445 24 15.8749 23.7155 17.2095 23.1627C18.5441 22.6099 19.7567 21.7996 20.7782 20.7782C21.7996 19.7567 22.6099 18.5441 23.1627 17.2095C23.7155 15.8749 24 14.4445 24 13C24 10.0826 22.8411 7.28473 20.7782 5.22183C18.7153 3.15893 15.9174 2 13 2ZM3.80761 3.80761C6.24558 1.36964 9.55219 0 13 0C16.4478 0 19.7544 1.36964 22.1924 3.80761C24.6304 6.24558 26 9.55219 26 13C26 14.7072 25.6637 16.3977 25.0104 17.9749C24.3571 19.5521 23.3996 20.9852 22.1924 22.1924C20.9852 23.3996 19.5521 24.3571 17.9749 25.0104C16.3977 25.6637 14.7072 26 13 26C11.2928 26 9.60235 25.6637 8.02512 25.0104C6.44788 24.3571 5.01477 23.3996 3.80761 22.1924C2.60045 20.9852 1.64288 19.5521 0.989566 17.9749C0.336255 16.3977 0 14.7072 0 13C7.94729e-08 9.55219 1.36964 6.24558 3.80761 3.80761ZM9.29289 9.29289C9.68342 8.90237 10.3166 8.90237 10.7071 9.29289L13 11.5858L15.2929 9.29289C15.6834 8.90237 16.3166 8.90237 16.7071 9.29289C17.0976 9.68342 17.0976 10.3166 16.7071 10.7071L14.4142 13L16.7071 15.2929C17.0976 15.6834 17.0976 16.3166 16.7071 16.7071C16.3166 17.0976 15.6834 17.0976 15.2929 16.7071L13 14.4142L10.7071 16.7071C10.3166 17.0976 9.68342 17.0976 9.29289 16.7071C8.90237 16.3166 8.90237 15.6834 9.29289 15.2929L11.5858 13L9.29289 10.7071C8.90237 10.3166 8.90237 9.68342 9.29289 9.29289Z" fill="#3478D7"/>
</svg>
