<svg width="15" height="12" viewBox="0 0 15 12" fill="none" xmlns="http://www.w3.org/2000/svg">
<path fill-rule="evenodd" clip-rule="evenodd" d="M1.08579 0.585787C1.46086 0.210714 1.96957 0 2.5 0H6.086C6.28309 4.20411e-05 6.47834 0.038923 6.66039 0.114421C6.84235 0.189879 7.00766 0.300436 7.14689 0.43978L8.56022 1.85311C8.65361 1.94662 8.78142 1.99984 8.91429 2C8.91424 2 8.91434 2 8.91429 2H12.5C13.0304 2 13.5391 2.21071 13.9142 2.58579C14.2893 2.96086 14.5 3.46957 14.5 4V10C14.5 10.5304 14.2893 11.0391 13.9142 11.4142C13.5391 11.7893 13.0304 12 12.5 12H2.5C1.96957 12 1.46086 11.7893 1.08579 11.4142C0.710714 11.0391 0.5 10.5304 0.5 10V2C0.5 1.46957 0.710714 0.960859 1.08579 0.585787ZM2.5 1C2.23478 1 1.98043 1.10536 1.79289 1.29289C1.60536 1.48043 1.5 1.73478 1.5 2V10C1.5 10.2652 1.60536 10.5196 1.79289 10.7071C1.98043 10.8946 2.23478 11 2.5 11H12.5C12.7652 11 13.0196 10.8946 13.2071 10.7071C13.3946 10.5196 13.5 10.2652 13.5 10V4C13.5 3.73478 13.3946 3.48043 13.2071 3.29289C13.0196 3.10536 12.7652 3 12.5 3H8.914C8.51666 2.99965 8.13418 2.84164 7.85289 2.56L6.43978 1.14689C6.39335 1.1004 6.33801 1.06331 6.27732 1.03814C6.21667 1.01299 6.15166 1.00003 6.086 1C6.08596 1 6.08604 1 6.086 1H2.5ZM7.5 4.5C7.77614 4.5 8 4.72386 8 5V6.5H9.5C9.77614 6.5 10 6.72386 10 7C10 7.27614 9.77614 7.5 9.5 7.5H8V9C8 9.27614 7.77614 9.5 7.5 9.5C7.22386 9.5 7 9.27614 7 9V7.5H5.5C5.22386 7.5 5 7.27614 5 7C5 6.72386 5.22386 6.5 5.5 6.5H7V5C7 4.72386 7.22386 4.5 7.5 4.5Z" fill="white"/>
</svg>
