<svg width="20" height="22" viewBox="0 0 20 22" fill="none" xmlns="http://www.w3.org/2000/svg">
<path d="M11.0324 0.486336C11.0836 0.487218 11.1347 0.488044 11.1859 0.488807C11.4336 0.492648 11.6797 0.499769 11.9262 0.525279C11.9536 0.528103 11.9536 0.528103 11.9814 0.530983C12.7211 0.615473 13.3938 1.01778 13.8644 1.58646C14.3533 2.20716 14.5298 2.92409 14.5091 3.70284C14.5389 3.70223 14.5686 3.70162 14.5993 3.70099C14.744 3.70111 14.8862 3.71652 15.0298 3.73229C15.0594 3.73546 15.0889 3.73863 15.1193 3.7419C15.1997 3.75062 15.28 3.75947 15.3604 3.76844C15.4109 3.77408 15.4614 3.77968 15.5119 3.78528C16.0285 3.84277 16.5433 3.90958 17.0576 3.98465C17.0879 3.98905 17.1181 3.99345 17.1493 3.99799C17.3229 4.02336 17.4963 4.04963 17.6696 4.0769C17.7305 4.08646 17.7914 4.09588 17.8523 4.10519C17.9475 4.11974 18.0426 4.13503 18.1377 4.15037C18.1665 4.15473 18.1953 4.15908 18.225 4.16357C18.4434 4.19981 18.6656 4.26709 18.8243 4.43011C18.9589 4.61946 19.0383 4.79943 19.0182 5.03617C18.9767 5.26864 18.8908 5.42903 18.7061 5.57708C18.4884 5.72753 18.2751 5.74198 18.0146 5.70246C17.9938 5.69858 17.973 5.69471 17.9515 5.69071C17.9239 5.79281 17.9168 5.89492 17.909 6.00006C17.9073 6.02184 17.9056 6.04362 17.9039 6.06606C17.8982 6.13958 17.8927 6.2131 17.8871 6.28662C17.8831 6.33966 17.879 6.39269 17.8749 6.44573C17.8637 6.59189 17.8526 6.73806 17.8415 6.88423C17.8295 7.04173 17.8175 7.19922 17.8054 7.35671C17.7845 7.62983 17.7637 7.90295 17.7429 8.17607C17.7114 8.58972 17.6797 9.00336 17.648 9.417C17.6353 9.58303 17.6226 9.74906 17.6099 9.91509C17.6085 9.93353 17.6071 9.95198 17.6056 9.97099C17.572 10.4103 17.5384 10.8496 17.5048 11.2889C17.5033 11.3081 17.5019 11.3274 17.5003 11.3472C17.4661 11.7953 17.4319 12.2434 17.3977 12.6915C17.3962 12.7107 17.3947 12.73 17.3932 12.7498C17.3858 12.8468 17.3784 12.9439 17.371 13.0409C17.3696 13.0601 17.3681 13.0793 17.3666 13.099C17.3636 13.1377 17.3607 13.1764 17.3577 13.2152C17.3089 13.8556 17.2599 14.496 17.2108 15.1364C17.2038 15.227 17.1969 15.3176 17.19 15.4082C17.1879 15.4349 17.1879 15.4349 17.1858 15.4622C17.1639 15.7484 17.1421 16.0345 17.1203 16.3207C17.0984 16.6088 17.0764 16.8969 17.0543 17.1849C17.0423 17.3408 17.0304 17.4967 17.0186 17.6526C17.0078 17.7956 16.9968 17.9386 16.9858 18.0816C16.9818 18.1331 16.9779 18.1845 16.9741 18.236C16.9092 19.1045 16.9092 19.1045 16.7849 19.4528C16.7776 19.4737 16.7704 19.4945 16.763 19.516C16.6099 19.9413 16.3698 20.2962 16.0606 20.624C16.0458 20.6405 16.0309 20.6569 16.0156 20.6738C15.5069 21.2151 14.7495 21.4756 14.0243 21.521C13.9117 21.5242 13.7992 21.5244 13.6867 21.5243C13.6535 21.5243 13.6204 21.5244 13.5872 21.5244C13.497 21.5246 13.4067 21.5246 13.3164 21.5245C13.2188 21.5245 13.1211 21.5247 13.0234 21.5248C12.8324 21.525 12.6413 21.5251 12.4503 21.5251C12.2948 21.5251 12.1394 21.5251 11.984 21.5252C11.5425 21.5254 11.1011 21.5255 10.6596 21.5255C10.6358 21.5255 10.6121 21.5255 10.5876 21.5255C10.5638 21.5255 10.54 21.5255 10.5155 21.5255C10.1302 21.5255 9.74485 21.5257 9.35952 21.5261C8.96312 21.5264 8.56671 21.5266 8.17031 21.5266C7.94806 21.5266 7.72581 21.5266 7.50357 21.5269C7.31431 21.5271 7.12505 21.5272 6.93579 21.527C6.8394 21.5269 6.74302 21.5269 6.64663 21.5271C5.69568 21.5291 5.69568 21.5291 5.30608 21.4195C5.28715 21.4143 5.26822 21.4091 5.24871 21.4038C4.49481 21.1875 3.85158 20.6835 3.46261 20.0038C3.17857 19.491 3.08792 18.9765 3.04387 18.3994C3.03978 18.3479 3.03568 18.2965 3.03155 18.245C3.02086 18.1109 3.01044 17.9768 3.00009 17.8427C2.99227 17.7417 2.98432 17.6408 2.97636 17.5398C2.95212 17.2325 2.92842 16.9251 2.90482 16.6177C2.89361 16.4718 2.88236 16.3259 2.87111 16.18C2.8505 15.9126 2.82992 15.6451 2.80937 15.3777C2.7904 15.131 2.77143 14.8844 2.75244 14.6377C2.74987 14.6043 2.7473 14.5709 2.74473 14.5376C2.74086 14.4872 2.73699 14.4369 2.73311 14.3866C2.69728 13.921 2.66145 13.4554 2.62566 12.9898C2.62432 12.9724 2.62298 12.9549 2.6216 12.937C2.61072 12.7955 2.59984 12.654 2.58897 12.5125C2.54635 11.9582 2.50369 11.4038 2.461 10.8495C2.41284 10.2242 2.36472 9.59893 2.31664 8.97364C2.31152 8.90707 2.3064 8.84051 2.30128 8.77394C2.29939 8.74937 2.29939 8.74937 2.29746 8.72429C2.27846 8.47712 2.25943 8.22996 2.24038 7.98279C2.21879 7.70251 2.19723 7.42223 2.17571 7.14194C2.16474 6.99899 2.15375 6.85604 2.14272 6.7131C2.13263 6.58241 2.12259 6.45172 2.11258 6.32102C2.10895 6.27365 2.1053 6.22627 2.10163 6.1789C2.09666 6.11473 2.09175 6.05055 2.08686 5.98638C2.08541 5.96782 2.08396 5.94925 2.08246 5.93013C2.07581 5.84203 2.07113 5.75483 2.07274 5.66647C2.05074 5.67447 2.02874 5.68247 2.00608 5.69071C1.78035 5.75352 1.55148 5.72778 1.34547 5.61799C1.14629 5.47991 1.04016 5.31789 0.989505 5.08285C0.951827 4.85353 1.02331 4.64151 1.15655 4.4553C1.3443 4.24177 1.61451 4.18502 1.88382 4.14412C1.91936 4.13851 1.91936 4.13851 1.95562 4.13279C2.03352 4.12057 2.11146 4.10865 2.18941 4.09677C2.21648 4.0926 2.24354 4.08842 2.27143 4.08412C3.09692 3.95677 3.9243 3.84421 4.75456 3.75284C4.78983 3.74891 4.78983 3.74891 4.82582 3.74491C4.89226 3.73757 4.95873 3.73044 5.02521 3.72338C5.04434 3.72127 5.06348 3.71916 5.08319 3.71698C5.21942 3.70294 5.35403 3.70065 5.49093 3.70284C5.49008 3.67115 5.48924 3.63946 5.48837 3.60681C5.47222 2.74581 5.74488 2.00489 6.33941 1.37556C6.35632 1.35709 6.37322 1.33863 6.39064 1.3196C6.94483 0.735016 7.73302 0.518365 8.51463 0.496856C8.63652 0.493877 8.75842 0.49147 8.88032 0.489199C8.91957 0.488441 8.91957 0.488441 8.95962 0.487668C9.65078 0.474494 10.3412 0.474299 11.0324 0.486336ZM9.04657 2.00634C8.93497 2.00732 8.82341 2.00885 8.71183 2.01113C8.67754 2.01177 8.64325 2.01227 8.60896 2.0126C8.16102 2.01734 7.76817 2.11919 7.43714 2.43399C7.16843 2.7096 7.01501 3.03295 7.01725 3.41884C7.01739 3.44934 7.01752 3.47984 7.01767 3.51127C7.01784 3.53449 7.01802 3.5577 7.0182 3.58162C7.049 3.58028 7.07981 3.57894 7.11155 3.57756C7.23061 3.57239 7.34968 3.5673 7.46875 3.56224C7.51939 3.56008 7.57003 3.55789 7.62067 3.55568C8.38122 3.52255 9.14094 3.50393 9.9022 3.50432C9.96479 3.50435 10.0274 3.50434 10.09 3.50432C10.8353 3.50436 11.5788 3.52165 12.3235 3.55407C12.4325 3.55879 12.5416 3.56329 12.6507 3.56781C12.7611 3.57239 12.8714 3.577 12.9818 3.58162C12.9956 3.16431 12.9128 2.82832 12.6333 2.50587C12.2962 2.1539 11.9282 2.02826 11.444 2.01525C11.4106 2.01469 11.3773 2.01416 11.344 2.01363C11.3081 2.01284 11.2722 2.01203 11.2363 2.0112C10.8432 2.00278 10.45 2.00221 10.0568 2.00279C10 2.00284 9.94321 2.00279 9.8864 2.00271C9.60643 2.0023 9.32652 2.00398 9.04657 2.00634ZM7.60184 5.05596C7.52193 5.06073 7.442 5.06531 7.36208 5.06988C6.24472 5.13471 5.12925 5.23407 4.0182 5.3695C3.99775 5.37195 3.97729 5.37439 3.95622 5.37691C3.90021 5.38367 3.84424 5.39072 3.78827 5.39791C3.75747 5.40181 3.72666 5.40571 3.69493 5.40972C3.62156 5.41782 3.62156 5.41782 3.57577 5.47253C3.57611 5.54409 3.5796 5.61278 3.58551 5.68396C3.58715 5.70622 3.58879 5.72849 3.59048 5.75144C3.59611 5.82692 3.60211 5.90237 3.60811 5.97783C3.61224 6.03214 3.61634 6.08645 3.62043 6.14077C3.63177 6.29071 3.64344 6.44062 3.65516 6.59053C3.66644 6.7354 3.67747 6.88029 3.68851 7.02518C3.71251 7.34003 3.73682 7.65486 3.76124 7.96968C3.78263 8.24535 3.80392 8.52103 3.82511 8.79672C3.82721 8.82412 3.82721 8.82412 3.82936 8.85208C3.83506 8.92623 3.84076 9.00038 3.84646 9.07453C3.89998 9.77084 3.9538 10.4671 4.00776 11.1634C4.05568 11.7818 4.10335 12.4003 4.15079 13.0187C4.20408 13.7133 4.25752 14.4079 4.31122 15.1025C4.31694 15.1766 4.32267 15.2507 4.3284 15.3248C4.32981 15.343 4.33122 15.3613 4.33267 15.3801C4.35395 15.6554 4.37512 15.9307 4.39622 16.206C4.42024 16.5193 4.44443 16.8326 4.46885 17.1459C4.48131 17.3057 4.49368 17.4656 4.50585 17.6254C4.517 17.7719 4.52837 17.9183 4.53992 18.0647C4.54405 18.1176 4.5481 18.1705 4.55206 18.2234C4.59633 18.8132 4.69913 19.2698 5.15475 19.6762C5.59541 20.0268 6.12123 20.0081 6.65392 20.0061C6.75261 20.0058 6.8513 20.0061 6.94999 20.0063C7.14282 20.0066 7.33565 20.0065 7.52847 20.0061C7.75339 20.0057 7.97831 20.0058 8.20322 20.0059C8.6047 20.006 9.00618 20.0057 9.40766 20.0051C9.79659 20.0045 10.1855 20.0043 10.5744 20.0046C10.9988 20.0048 11.4231 20.0049 11.8475 20.0045C11.8928 20.0045 11.9381 20.0045 11.9834 20.0044C12.0168 20.0044 12.0168 20.0044 12.0509 20.0044C12.2074 20.0042 12.3639 20.0043 12.5205 20.0044C12.7113 20.0045 12.9022 20.0044 13.0931 20.0039C13.1904 20.0037 13.2876 20.0035 13.3849 20.0037C13.4741 20.0039 13.5634 20.0037 13.6526 20.0033C13.6997 20.0031 13.7468 20.0034 13.7939 20.0036C14.069 20.0016 14.3424 19.9634 14.5879 19.8331C14.6041 19.8248 14.6203 19.8164 14.6369 19.8078C14.9591 19.6339 15.2036 19.3412 15.3334 18.9998C15.417 18.72 15.432 18.4339 15.4535 18.1443C15.4577 18.0894 15.462 18.0345 15.4663 17.9796C15.4779 17.8295 15.4893 17.6792 15.5006 17.529C15.5116 17.3835 15.5228 17.238 15.5341 17.0925C15.557 16.795 15.5797 16.4975 15.6023 16.2C15.6247 15.9056 15.6472 15.6112 15.6697 15.3168C15.6712 15.2984 15.6726 15.2801 15.674 15.2612C15.6812 15.1682 15.6883 15.0751 15.6954 14.982C15.746 14.3232 15.7964 13.6645 15.8466 13.0057C15.8954 12.3658 15.9442 11.726 15.9932 11.0862C15.9955 11.0566 15.9955 11.0566 15.9978 11.0264C16.013 10.8282 16.0282 10.63 16.0434 10.4318C16.0743 10.0281 16.1052 9.62439 16.1361 9.22069C16.1375 9.20213 16.139 9.18357 16.1404 9.16444C16.2353 7.92574 16.3298 6.68702 16.4243 5.44829C16.3864 5.44052 16.3485 5.4328 16.3105 5.42511C16.2789 5.41865 16.2789 5.41865 16.2466 5.41206C16.1431 5.39248 16.0391 5.37986 15.9346 5.36751C15.8994 5.36327 15.8994 5.36327 15.8635 5.35893C15.7863 5.34969 15.7091 5.34063 15.6318 5.33162C15.6049 5.32847 15.578 5.32532 15.5503 5.32207C14.5503 5.20551 13.5473 5.11768 12.5419 5.06415C12.4746 5.06051 12.4073 5.05665 12.34 5.05274C10.7702 4.96311 9.17147 4.96208 7.60184 5.05596Z" fill="#DD0021"/>
<path d="M7.62426 7.31496C7.79503 7.41759 7.91044 7.54313 7.98789 7.72708C8.03855 7.96118 8.04667 8.20156 8.05526 8.44017C8.0567 8.47663 8.05816 8.5131 8.05963 8.54957C8.0636 8.6488 8.06735 8.74803 8.07105 8.84727C8.07511 8.95467 8.07936 9.06207 8.08359 9.16947C8.09183 9.37946 8.09988 9.58947 8.10786 9.79948C8.11435 9.97023 8.1209 10.141 8.12751 10.3117C8.12845 10.3361 8.1294 10.3604 8.13037 10.3855C8.13228 10.435 8.1342 10.4845 8.13611 10.534C8.15404 10.9973 8.17175 11.4607 8.18938 11.924C8.2045 12.3212 8.21981 12.7183 8.23526 13.1155C8.25322 13.5773 8.27106 14.039 8.28872 14.5009C8.2906 14.5501 8.29249 14.5994 8.29437 14.6487C8.2953 14.673 8.29623 14.6972 8.29718 14.7222C8.30371 14.8926 8.31032 15.0631 8.31696 15.2336C8.32506 15.4414 8.33303 15.6492 8.34084 15.8571C8.34482 15.963 8.34886 16.069 8.35305 16.1749C8.3569 16.2721 8.36058 16.3692 8.36412 16.4664C8.36543 16.5014 8.3668 16.5363 8.36823 16.5713C8.39696 17.2751 8.39696 17.2751 8.16555 17.5438C7.9873 17.707 7.78392 17.7741 7.54528 17.7699C7.3039 17.7465 7.12789 17.6273 6.96971 17.4483C6.87237 17.3018 6.84634 17.1637 6.83793 16.9911C6.83708 16.9739 6.83622 16.9568 6.83534 16.9391C6.83245 16.8801 6.82973 16.8211 6.82702 16.7621C6.82601 16.7409 6.82501 16.7197 6.82397 16.6979C6.79028 15.9858 6.76391 15.2733 6.73636 14.5609C6.7316 14.4379 6.72683 14.3149 6.72205 14.1919C6.70875 13.8491 6.69546 13.5063 6.68224 13.1635C6.68141 13.1418 6.68057 13.12 6.67971 13.0977C6.67887 13.0759 6.67803 13.0541 6.67716 13.0317C6.67547 12.9877 6.67377 12.9436 6.67207 12.8995C6.6708 12.8668 6.6708 12.8668 6.66951 12.8333C6.65583 12.4785 6.64201 12.1237 6.62814 11.7689C6.61378 11.4017 6.59953 11.0345 6.5854 10.6672C6.5775 10.4622 6.56957 10.2572 6.5615 10.0522C6.55464 9.87795 6.54789 9.70369 6.54127 9.52943C6.53791 9.441 6.53451 9.35257 6.53096 9.26414C6.52212 9.04273 6.51463 8.82133 6.50911 8.59981C6.50867 8.5828 6.50824 8.56579 6.50779 8.54827C6.50515 8.44224 6.5032 8.33623 6.50207 8.23018C6.50165 8.19676 6.50106 8.16335 6.5003 8.12994C6.49458 7.86734 6.52556 7.64679 6.71024 7.44905C6.95916 7.22525 7.32044 7.15829 7.62426 7.31496Z" fill="#DD0021"/>
<path d="M13.1515 7.3392C13.3273 7.44874 13.4216 7.60755 13.4909 7.7998C13.5083 7.91856 13.506 8.03383 13.5018 8.15357C13.5011 8.18762 13.5005 8.22167 13.4999 8.25572C13.4983 8.34474 13.4956 8.43369 13.4927 8.52267C13.491 8.57399 13.4895 8.62532 13.4881 8.67664C13.482 8.90285 13.4736 9.12895 13.4646 9.35506C13.4607 9.45461 13.457 9.55418 13.4532 9.65374C13.4458 9.84746 13.4383 10.0412 13.4307 10.2349C13.4218 10.4612 13.4132 10.6875 13.4045 10.9138C13.389 11.3176 13.3733 11.7215 13.3576 12.1253C13.3424 12.5161 13.3273 12.9069 13.3122 13.2977C13.3113 13.3219 13.3104 13.346 13.3094 13.3709C13.3076 13.4195 13.3057 13.4682 13.3038 13.5168C13.3029 13.5408 13.302 13.5648 13.301 13.5895C13.2997 13.6254 13.2997 13.6254 13.2982 13.6621C13.2839 14.0364 13.2694 14.4107 13.2549 14.785C13.2497 14.92 13.2445 15.0551 13.2393 15.1902C13.231 15.4042 13.2227 15.6181 13.2144 15.8321C13.2106 15.9297 13.2068 16.0273 13.203 16.125C13.1996 16.2145 13.1961 16.3041 13.1926 16.3937C13.1907 16.4409 13.1889 16.4881 13.1872 16.5353C13.1811 16.6867 13.1741 16.838 13.1652 16.9892C13.1635 17.0183 13.1619 17.0473 13.1602 17.0773C13.1373 17.2896 13.0412 17.4511 12.8849 17.5937C12.7008 17.7361 12.5096 17.7849 12.2788 17.7634C12.0694 17.7281 11.9033 17.6329 11.774 17.4629C11.6387 17.2499 11.6168 17.0624 11.6278 16.8157C11.6287 16.7892 11.6297 16.7626 11.6307 16.7352C11.634 16.6465 11.6376 16.5579 11.6413 16.4692C11.6437 16.4053 11.6461 16.3415 11.6485 16.2776C11.6537 16.1408 11.659 16.004 11.6644 15.8672C11.6727 15.6564 11.6805 15.4457 11.6882 15.2349C11.7049 14.7785 11.7221 14.3222 11.7394 13.8659C11.741 13.8247 11.7425 13.7836 11.7441 13.7424C11.7587 13.3567 11.7733 12.9709 11.788 12.5852C11.7913 12.4974 11.7947 12.4096 11.798 12.3219C11.7989 12.3001 11.7997 12.2783 11.8005 12.2558C11.8141 11.8994 11.8275 11.543 11.8409 11.1866C11.8547 10.8175 11.8687 10.4484 11.8828 10.0793C11.8907 9.87334 11.8985 9.66733 11.9061 9.46132C11.9126 9.28689 11.9192 9.11248 11.926 8.93806C11.9294 8.84935 11.9328 8.76063 11.936 8.6719C11.9395 8.57553 11.9433 8.47917 11.9471 8.38281C11.9481 8.35518 11.949 8.32755 11.95 8.29908C11.9639 7.96347 11.9862 7.66157 12.2303 7.41193C12.509 7.20366 12.8411 7.1767 13.1515 7.3392Z" fill="#DD0021"/>
</svg>
